<mxfile host="app.diagrams.net" agent="Mozilla/5.0 (Windows NT 10.0; Win64; x64; rv:130.0) Gecko/20100101 Firefox/130.0" version="24.7.17">
  <diagram name="Page-1" id="Jv_TQmSTfyp_RUovjXyt">
    <mxGraphModel dx="877" dy="461" grid="1" gridSize="10" guides="1" tooltips="1" connect="1" arrows="1" fold="1" page="1" pageScale="1" pageWidth="850" pageHeight="1100" math="0" shadow="0">
      <root>
        <mxCell id="0" />
        <mxCell id="1" parent="0" />
        <mxCell id="Bxq7dNhiQGgo0WM1oG6--110" value="" style="rounded=0;whiteSpace=wrap;html=1;" parent="1" vertex="1">
          <mxGeometry x="385" y="310" width="20" height="60" as="geometry" />
        </mxCell>
        <mxCell id="Bxq7dNhiQGgo0WM1oG6--5" value="" style="rounded=0;whiteSpace=wrap;html=1;" parent="1" vertex="1">
          <mxGeometry x="170" y="180" width="20" height="260" as="geometry" />
        </mxCell>
        <mxCell id="Bxq7dNhiQGgo0WM1oG6--1" value="System" style="rounded=0;whiteSpace=wrap;html=1;" parent="1" vertex="1">
          <mxGeometry x="110" y="110" width="150" height="30" as="geometry" />
        </mxCell>
        <mxCell id="Bxq7dNhiQGgo0WM1oG6--6" value="" style="endArrow=none;dashed=1;html=1;dashPattern=1 3;strokeWidth=2;rounded=0;entryX=0.5;entryY=1;entryDx=0;entryDy=0;" parent="1" source="Bxq7dNhiQGgo0WM1oG6--5" target="Bxq7dNhiQGgo0WM1oG6--1" edge="1">
          <mxGeometry width="50" height="50" relative="1" as="geometry">
            <mxPoint x="185" y="600" as="sourcePoint" />
            <mxPoint x="450" y="280" as="targetPoint" />
          </mxGeometry>
        </mxCell>
        <mxCell id="Bxq7dNhiQGgo0WM1oG6--7" value="&lt;font style=&quot;font-size: 19px;&quot;&gt;\EXAM&lt;/font&gt;" style="shape=note;whiteSpace=wrap;html=1;backgroundOutline=1;darkOpacity=0.05;" parent="1" vertex="1">
          <mxGeometry x="20" y="10" width="160" height="80" as="geometry" />
        </mxCell>
        <mxCell id="Bxq7dNhiQGgo0WM1oG6--8" value="" style="endArrow=classic;html=1;rounded=0;" parent="1" edge="1">
          <mxGeometry width="50" height="50" relative="1" as="geometry">
            <mxPoint x="40" y="160" as="sourcePoint" />
            <mxPoint x="180" y="160" as="targetPoint" />
          </mxGeometry>
        </mxCell>
        <mxCell id="Bxq7dNhiQGgo0WM1oG6--9" value="Exam info" style="edgeLabel;html=1;align=center;verticalAlign=middle;resizable=0;points=[];" parent="Bxq7dNhiQGgo0WM1oG6--8" vertex="1" connectable="0">
          <mxGeometry x="-0.6118" y="-2" relative="1" as="geometry">
            <mxPoint x="23" y="-12" as="offset" />
          </mxGeometry>
        </mxCell>
        <mxCell id="Bxq7dNhiQGgo0WM1oG6--10" value="" style="endArrow=classic;html=1;rounded=0;" parent="1" edge="1">
          <mxGeometry width="50" height="50" relative="1" as="geometry">
            <mxPoint x="190" y="190" as="sourcePoint" />
            <mxPoint x="180" y="230" as="targetPoint" />
            <Array as="points">
              <mxPoint x="240" y="190" />
              <mxPoint x="240" y="230" />
            </Array>
          </mxGeometry>
        </mxCell>
        <mxCell id="Bxq7dNhiQGgo0WM1oG6--11" value="prescribeExam()" style="edgeLabel;html=1;align=center;verticalAlign=middle;resizable=0;points=[];" parent="Bxq7dNhiQGgo0WM1oG6--10" vertex="1" connectable="0">
          <mxGeometry x="-0.6118" y="-2" relative="1" as="geometry">
            <mxPoint x="21" y="-12" as="offset" />
          </mxGeometry>
        </mxCell>
        <mxCell id="Bxq7dNhiQGgo0WM1oG6--17" value="" style="endArrow=classic;html=1;rounded=0;" parent="1" edge="1">
          <mxGeometry width="50" height="50" relative="1" as="geometry">
            <mxPoint x="190" y="390" as="sourcePoint" />
            <mxPoint x="600" y="390" as="targetPoint" />
          </mxGeometry>
        </mxCell>
        <mxCell id="Bxq7dNhiQGgo0WM1oG6--18" value="addExam()" style="edgeLabel;html=1;align=center;verticalAlign=middle;resizable=0;points=[];" parent="Bxq7dNhiQGgo0WM1oG6--17" vertex="1" connectable="0">
          <mxGeometry x="-0.6118" y="-2" relative="1" as="geometry">
            <mxPoint x="71" y="-12" as="offset" />
          </mxGeometry>
        </mxCell>
        <mxCell id="Bxq7dNhiQGgo0WM1oG6--26" value="" style="endArrow=none;html=1;rounded=0;dashed=1;dashPattern=8 8;startArrow=classic;startFill=1;endFill=0;" parent="1" edge="1">
          <mxGeometry width="50" height="50" relative="1" as="geometry">
            <mxPoint x="190" y="420" as="sourcePoint" />
            <mxPoint x="600" y="420" as="targetPoint" />
          </mxGeometry>
        </mxCell>
        <mxCell id="Bxq7dNhiQGgo0WM1oG6--28" value="conformation" style="edgeLabel;html=1;align=center;verticalAlign=middle;resizable=0;points=[];" parent="Bxq7dNhiQGgo0WM1oG6--26" vertex="1" connectable="0">
          <mxGeometry x="0.2972" y="2" relative="1" as="geometry">
            <mxPoint x="-33" y="-8" as="offset" />
          </mxGeometry>
        </mxCell>
        <mxCell id="Bxq7dNhiQGgo0WM1oG6--67" value="" style="endArrow=none;dashed=1;html=1;dashPattern=1 3;strokeWidth=2;rounded=0;entryX=0.5;entryY=1;entryDx=0;entryDy=0;" parent="1" target="Bxq7dNhiQGgo0WM1oG6--5" edge="1">
          <mxGeometry width="50" height="50" relative="1" as="geometry">
            <mxPoint x="180" y="550" as="sourcePoint" />
            <mxPoint x="185" y="140" as="targetPoint" />
          </mxGeometry>
        </mxCell>
        <mxCell id="Bxq7dNhiQGgo0WM1oG6--85" value="Exam" style="rounded=0;whiteSpace=wrap;html=1;" parent="1" vertex="1">
          <mxGeometry x="540" y="110" width="150" height="30" as="geometry" />
        </mxCell>
        <mxCell id="Bxq7dNhiQGgo0WM1oG6--86" value="" style="endArrow=none;dashed=1;html=1;dashPattern=1 3;strokeWidth=2;rounded=0;entryX=0.5;entryY=1;entryDx=0;entryDy=0;" parent="1" source="Bxq7dNhiQGgo0WM1oG6--87" target="Bxq7dNhiQGgo0WM1oG6--85" edge="1">
          <mxGeometry width="50" height="50" relative="1" as="geometry">
            <mxPoint x="615" y="650" as="sourcePoint" />
            <mxPoint x="610" y="250" as="targetPoint" />
          </mxGeometry>
        </mxCell>
        <mxCell id="Bxq7dNhiQGgo0WM1oG6--88" value="" style="endArrow=none;dashed=1;html=1;dashPattern=1 3;strokeWidth=2;rounded=0;entryX=0.5;entryY=1;entryDx=0;entryDy=0;" parent="1" target="Bxq7dNhiQGgo0WM1oG6--87" edge="1">
          <mxGeometry width="50" height="50" relative="1" as="geometry">
            <mxPoint x="615" y="550" as="sourcePoint" />
            <mxPoint x="615" y="140" as="targetPoint" />
          </mxGeometry>
        </mxCell>
        <mxCell id="Bxq7dNhiQGgo0WM1oG6--87" value="" style="rounded=0;whiteSpace=wrap;html=1;" parent="1" vertex="1">
          <mxGeometry x="605" y="380" width="20" height="60" as="geometry" />
        </mxCell>
        <mxCell id="Bxq7dNhiQGgo0WM1oG6--89" value="" style="endArrow=classic;html=1;rounded=0;fillColor=#f8cecc;strokeColor=#b85450;" parent="1" edge="1">
          <mxGeometry width="50" height="50" relative="1" as="geometry">
            <mxPoint x="190" y="255" as="sourcePoint" />
            <mxPoint x="180" y="295" as="targetPoint" />
            <Array as="points">
              <mxPoint x="240" y="255" />
              <mxPoint x="240" y="295" />
            </Array>
          </mxGeometry>
        </mxCell>
        <mxCell id="Bxq7dNhiQGgo0WM1oG6--90" value="token_required()" style="edgeLabel;html=1;align=center;verticalAlign=middle;resizable=0;points=[];" parent="Bxq7dNhiQGgo0WM1oG6--89" vertex="1" connectable="0">
          <mxGeometry x="-0.6118" y="-2" relative="1" as="geometry">
            <mxPoint x="21" y="-12" as="offset" />
          </mxGeometry>
        </mxCell>
        <mxCell id="Bxq7dNhiQGgo0WM1oG6--92" value="Permission Manager" style="rounded=0;whiteSpace=wrap;html=1;" parent="1" vertex="1">
          <mxGeometry x="320" y="110" width="150" height="30" as="geometry" />
        </mxCell>
        <mxCell id="Bxq7dNhiQGgo0WM1oG6--93" value="" style="endArrow=none;dashed=1;html=1;dashPattern=1 3;strokeWidth=2;rounded=0;entryX=0.5;entryY=1;entryDx=0;entryDy=0;" parent="1" source="Bxq7dNhiQGgo0WM1oG6--110" target="Bxq7dNhiQGgo0WM1oG6--92" edge="1">
          <mxGeometry width="50" height="50" relative="1" as="geometry">
            <mxPoint x="400" y="600" as="sourcePoint" />
            <mxPoint x="390" y="250" as="targetPoint" />
          </mxGeometry>
        </mxCell>
        <mxCell id="Bxq7dNhiQGgo0WM1oG6--106" value="" style="endArrow=classic;html=1;rounded=0;fillColor=#f8cecc;strokeColor=#b85450;" parent="1" edge="1">
          <mxGeometry width="50" height="50" relative="1" as="geometry">
            <mxPoint x="190" y="330" as="sourcePoint" />
            <mxPoint x="390" y="330" as="targetPoint" />
          </mxGeometry>
        </mxCell>
        <mxCell id="Bxq7dNhiQGgo0WM1oG6--107" value="checkPermissions()" style="edgeLabel;html=1;align=center;verticalAlign=middle;resizable=0;points=[];" parent="Bxq7dNhiQGgo0WM1oG6--106" vertex="1" connectable="0">
          <mxGeometry x="-0.6118" y="-2" relative="1" as="geometry">
            <mxPoint x="53" y="-12" as="offset" />
          </mxGeometry>
        </mxCell>
        <mxCell id="Bxq7dNhiQGgo0WM1oG6--108" value="" style="endArrow=none;html=1;rounded=0;dashed=1;dashPattern=8 8;startArrow=classic;startFill=1;endFill=0;" parent="1" edge="1">
          <mxGeometry width="50" height="50" relative="1" as="geometry">
            <mxPoint x="190" y="360" as="sourcePoint" />
            <mxPoint x="390" y="360" as="targetPoint" />
          </mxGeometry>
        </mxCell>
        <mxCell id="Bxq7dNhiQGgo0WM1oG6--109" value="conformation" style="edgeLabel;html=1;align=center;verticalAlign=middle;resizable=0;points=[];" parent="Bxq7dNhiQGgo0WM1oG6--108" vertex="1" connectable="0">
          <mxGeometry x="0.2972" y="2" relative="1" as="geometry">
            <mxPoint x="-33" y="-8" as="offset" />
          </mxGeometry>
        </mxCell>
        <mxCell id="Bxq7dNhiQGgo0WM1oG6--111" value="" style="endArrow=none;dashed=1;html=1;dashPattern=1 3;strokeWidth=2;rounded=0;entryX=0.5;entryY=1;entryDx=0;entryDy=0;" parent="1" target="Bxq7dNhiQGgo0WM1oG6--110" edge="1">
          <mxGeometry width="50" height="50" relative="1" as="geometry">
            <mxPoint x="400" y="540" as="sourcePoint" />
            <mxPoint x="395" y="140" as="targetPoint" />
          </mxGeometry>
        </mxCell>
        <mxCell id="2yE9eMhKhNSZ87U5vpfU-24" value="" style="rounded=0;whiteSpace=wrap;html=1;" vertex="1" parent="1">
          <mxGeometry x="375" y="850" width="20" height="60" as="geometry" />
        </mxCell>
        <mxCell id="2yE9eMhKhNSZ87U5vpfU-25" value="" style="rounded=0;whiteSpace=wrap;html=1;" vertex="1" parent="1">
          <mxGeometry x="160" y="720" width="20" height="260" as="geometry" />
        </mxCell>
        <mxCell id="2yE9eMhKhNSZ87U5vpfU-26" value="System" style="rounded=0;whiteSpace=wrap;html=1;" vertex="1" parent="1">
          <mxGeometry x="100" y="650" width="150" height="30" as="geometry" />
        </mxCell>
        <mxCell id="2yE9eMhKhNSZ87U5vpfU-27" value="" style="endArrow=none;dashed=1;html=1;dashPattern=1 3;strokeWidth=2;rounded=0;entryX=0.5;entryY=1;entryDx=0;entryDy=0;" edge="1" parent="1" source="2yE9eMhKhNSZ87U5vpfU-25" target="2yE9eMhKhNSZ87U5vpfU-26">
          <mxGeometry width="50" height="50" relative="1" as="geometry">
            <mxPoint x="175" y="1140" as="sourcePoint" />
            <mxPoint x="440" y="820" as="targetPoint" />
          </mxGeometry>
        </mxCell>
        <mxCell id="2yE9eMhKhNSZ87U5vpfU-29" value="" style="endArrow=classic;html=1;rounded=0;" edge="1" parent="1">
          <mxGeometry width="50" height="50" relative="1" as="geometry">
            <mxPoint x="30" y="700" as="sourcePoint" />
            <mxPoint x="170" y="700" as="targetPoint" />
          </mxGeometry>
        </mxCell>
        <mxCell id="2yE9eMhKhNSZ87U5vpfU-30" value="Patient input" style="edgeLabel;html=1;align=center;verticalAlign=middle;resizable=0;points=[];" vertex="1" connectable="0" parent="2yE9eMhKhNSZ87U5vpfU-29">
          <mxGeometry x="-0.6118" y="-2" relative="1" as="geometry">
            <mxPoint x="23" y="-12" as="offset" />
          </mxGeometry>
        </mxCell>
        <mxCell id="2yE9eMhKhNSZ87U5vpfU-31" value="" style="endArrow=classic;html=1;rounded=0;" edge="1" parent="1">
          <mxGeometry width="50" height="50" relative="1" as="geometry">
            <mxPoint x="180" y="730" as="sourcePoint" />
            <mxPoint x="170" y="770" as="targetPoint" />
            <Array as="points">
              <mxPoint x="230" y="730" />
              <mxPoint x="230" y="770" />
            </Array>
          </mxGeometry>
        </mxCell>
        <mxCell id="2yE9eMhKhNSZ87U5vpfU-32" value="viewExam()" style="edgeLabel;html=1;align=center;verticalAlign=middle;resizable=0;points=[];" vertex="1" connectable="0" parent="2yE9eMhKhNSZ87U5vpfU-31">
          <mxGeometry x="-0.6118" y="-2" relative="1" as="geometry">
            <mxPoint x="21" y="-12" as="offset" />
          </mxGeometry>
        </mxCell>
        <mxCell id="2yE9eMhKhNSZ87U5vpfU-33" value="" style="endArrow=classic;html=1;rounded=0;" edge="1" parent="1">
          <mxGeometry width="50" height="50" relative="1" as="geometry">
            <mxPoint x="180" y="930" as="sourcePoint" />
            <mxPoint x="590" y="930" as="targetPoint" />
          </mxGeometry>
        </mxCell>
        <mxCell id="2yE9eMhKhNSZ87U5vpfU-34" value="getExams()" style="edgeLabel;html=1;align=center;verticalAlign=middle;resizable=0;points=[];" vertex="1" connectable="0" parent="2yE9eMhKhNSZ87U5vpfU-33">
          <mxGeometry x="-0.6118" y="-2" relative="1" as="geometry">
            <mxPoint x="81" y="-12" as="offset" />
          </mxGeometry>
        </mxCell>
        <mxCell id="2yE9eMhKhNSZ87U5vpfU-35" value="" style="endArrow=none;html=1;rounded=0;dashed=1;dashPattern=8 8;startArrow=classic;startFill=1;endFill=0;" edge="1" parent="1">
          <mxGeometry width="50" height="50" relative="1" as="geometry">
            <mxPoint x="180" y="960" as="sourcePoint" />
            <mxPoint x="590" y="960" as="targetPoint" />
          </mxGeometry>
        </mxCell>
        <mxCell id="2yE9eMhKhNSZ87U5vpfU-36" value="conformation" style="edgeLabel;html=1;align=center;verticalAlign=middle;resizable=0;points=[];" vertex="1" connectable="0" parent="2yE9eMhKhNSZ87U5vpfU-35">
          <mxGeometry x="0.2972" y="2" relative="1" as="geometry">
            <mxPoint x="-41" y="-8" as="offset" />
          </mxGeometry>
        </mxCell>
        <mxCell id="2yE9eMhKhNSZ87U5vpfU-37" value="" style="endArrow=none;dashed=1;html=1;dashPattern=1 3;strokeWidth=2;rounded=0;entryX=0.5;entryY=1;entryDx=0;entryDy=0;" edge="1" parent="1" target="2yE9eMhKhNSZ87U5vpfU-25">
          <mxGeometry width="50" height="50" relative="1" as="geometry">
            <mxPoint x="170" y="1090" as="sourcePoint" />
            <mxPoint x="175" y="680" as="targetPoint" />
          </mxGeometry>
        </mxCell>
        <mxCell id="2yE9eMhKhNSZ87U5vpfU-38" value="Exam" style="rounded=0;whiteSpace=wrap;html=1;" vertex="1" parent="1">
          <mxGeometry x="530" y="650" width="150" height="30" as="geometry" />
        </mxCell>
        <mxCell id="2yE9eMhKhNSZ87U5vpfU-39" value="" style="endArrow=none;dashed=1;html=1;dashPattern=1 3;strokeWidth=2;rounded=0;entryX=0.5;entryY=1;entryDx=0;entryDy=0;" edge="1" parent="1" source="2yE9eMhKhNSZ87U5vpfU-41" target="2yE9eMhKhNSZ87U5vpfU-38">
          <mxGeometry width="50" height="50" relative="1" as="geometry">
            <mxPoint x="605" y="1190" as="sourcePoint" />
            <mxPoint x="600" y="790" as="targetPoint" />
          </mxGeometry>
        </mxCell>
        <mxCell id="2yE9eMhKhNSZ87U5vpfU-40" value="" style="endArrow=none;dashed=1;html=1;dashPattern=1 3;strokeWidth=2;rounded=0;entryX=0.5;entryY=1;entryDx=0;entryDy=0;" edge="1" parent="1" target="2yE9eMhKhNSZ87U5vpfU-41">
          <mxGeometry width="50" height="50" relative="1" as="geometry">
            <mxPoint x="605" y="1090" as="sourcePoint" />
            <mxPoint x="605" y="680" as="targetPoint" />
          </mxGeometry>
        </mxCell>
        <mxCell id="2yE9eMhKhNSZ87U5vpfU-41" value="" style="rounded=0;whiteSpace=wrap;html=1;" vertex="1" parent="1">
          <mxGeometry x="595" y="920" width="20" height="60" as="geometry" />
        </mxCell>
        <mxCell id="2yE9eMhKhNSZ87U5vpfU-42" value="" style="endArrow=classic;html=1;rounded=0;fillColor=#f8cecc;strokeColor=#b85450;" edge="1" parent="1">
          <mxGeometry width="50" height="50" relative="1" as="geometry">
            <mxPoint x="180" y="795" as="sourcePoint" />
            <mxPoint x="170" y="835" as="targetPoint" />
            <Array as="points">
              <mxPoint x="230" y="795" />
              <mxPoint x="230" y="835" />
            </Array>
          </mxGeometry>
        </mxCell>
        <mxCell id="2yE9eMhKhNSZ87U5vpfU-43" value="token_required()" style="edgeLabel;html=1;align=center;verticalAlign=middle;resizable=0;points=[];" vertex="1" connectable="0" parent="2yE9eMhKhNSZ87U5vpfU-42">
          <mxGeometry x="-0.6118" y="-2" relative="1" as="geometry">
            <mxPoint x="21" y="-12" as="offset" />
          </mxGeometry>
        </mxCell>
        <mxCell id="2yE9eMhKhNSZ87U5vpfU-44" value="Permission Manager" style="rounded=0;whiteSpace=wrap;html=1;" vertex="1" parent="1">
          <mxGeometry x="310" y="650" width="150" height="30" as="geometry" />
        </mxCell>
        <mxCell id="2yE9eMhKhNSZ87U5vpfU-45" value="" style="endArrow=none;dashed=1;html=1;dashPattern=1 3;strokeWidth=2;rounded=0;entryX=0.5;entryY=1;entryDx=0;entryDy=0;" edge="1" parent="1" source="2yE9eMhKhNSZ87U5vpfU-24" target="2yE9eMhKhNSZ87U5vpfU-44">
          <mxGeometry width="50" height="50" relative="1" as="geometry">
            <mxPoint x="390" y="1140" as="sourcePoint" />
            <mxPoint x="380" y="790" as="targetPoint" />
          </mxGeometry>
        </mxCell>
        <mxCell id="2yE9eMhKhNSZ87U5vpfU-46" value="" style="endArrow=classic;html=1;rounded=0;fillColor=#f8cecc;strokeColor=#b85450;" edge="1" parent="1">
          <mxGeometry width="50" height="50" relative="1" as="geometry">
            <mxPoint x="180" y="870" as="sourcePoint" />
            <mxPoint x="380" y="870" as="targetPoint" />
          </mxGeometry>
        </mxCell>
        <mxCell id="2yE9eMhKhNSZ87U5vpfU-47" value="checkPermissions()" style="edgeLabel;html=1;align=center;verticalAlign=middle;resizable=0;points=[];" vertex="1" connectable="0" parent="2yE9eMhKhNSZ87U5vpfU-46">
          <mxGeometry x="-0.6118" y="-2" relative="1" as="geometry">
            <mxPoint x="53" y="-12" as="offset" />
          </mxGeometry>
        </mxCell>
        <mxCell id="2yE9eMhKhNSZ87U5vpfU-48" value="" style="endArrow=none;html=1;rounded=0;dashed=1;dashPattern=8 8;startArrow=classic;startFill=1;endFill=0;" edge="1" parent="1">
          <mxGeometry width="50" height="50" relative="1" as="geometry">
            <mxPoint x="180" y="900" as="sourcePoint" />
            <mxPoint x="380" y="900" as="targetPoint" />
          </mxGeometry>
        </mxCell>
        <mxCell id="2yE9eMhKhNSZ87U5vpfU-49" value="conformation" style="edgeLabel;html=1;align=center;verticalAlign=middle;resizable=0;points=[];" vertex="1" connectable="0" parent="2yE9eMhKhNSZ87U5vpfU-48">
          <mxGeometry x="0.2972" y="2" relative="1" as="geometry">
            <mxPoint x="-33" y="-8" as="offset" />
          </mxGeometry>
        </mxCell>
        <mxCell id="2yE9eMhKhNSZ87U5vpfU-50" value="" style="endArrow=none;dashed=1;html=1;dashPattern=1 3;strokeWidth=2;rounded=0;entryX=0.5;entryY=1;entryDx=0;entryDy=0;" edge="1" parent="1" target="2yE9eMhKhNSZ87U5vpfU-24">
          <mxGeometry width="50" height="50" relative="1" as="geometry">
            <mxPoint x="390" y="1080" as="sourcePoint" />
            <mxPoint x="385" y="680" as="targetPoint" />
          </mxGeometry>
        </mxCell>
      </root>
    </mxGraphModel>
  </diagram>
</mxfile>
